<svg xmlns="http://www.w3.org/2000/svg" width="209" height="54" viewBox="0 0 209 54">
  <defs>
    <style>
      .cls-1 {
        fill: #2584ff;
        stroke: #2584ff;
      }

      .cls-1, .cls-2 {
        stroke-linecap: round;
        stroke-linejoin: round;
        stroke-width: 10px;
        fill-rule: evenodd;
      }

      .cls-2 {
        fill: #ff3400;
        stroke: #ff3400;
        mix-blend-mode: lighten;
      }

      .cls-3 {
        font-size: 32.498px;
        fill: #fff;
        font-family: Inter;
        font-weight: 700;
      }
    </style>
  </defs>
  <path id="Polygon_1_copy_2" data-name="Polygon 1 copy 2" class="cls-1" d="M43.851,29.7L24.244,39.2,32.037,14.02Z"/>
  <path id="Polygon_1_copy_2-2" data-name="Polygon 1 copy 2" class="cls-2" d="M37.033,29.7L56.64,39.2,48.847,14.02Z"/>
  <text id="Leo Zhi" class="cls-3" transform="translate(71.466 35.437) scale(0.923)">Leo Zhi</text>
</svg>

<svg version="1.0" xmlns="http://www.w3.org/2000/svg"
 width="2048.00pt" height="2048.000000pt" viewBox="0 0 2048.000000 2048.000000"
 preserveAspectRatio="xMidYMid meet">

<g transform="translate(0.000000,2048.000000) scale(0.100000,-0.100000)"
fill="#000000" stroke="none">
<path d="M4080 17881 c0 -10 130 -248 289 -527 245 -433 1098 -1938 1519
-2679 200 -353 224 -395 234 -401 5 -3 8 -2 6 3 -1 4 8 24 20 43 12 19 246
393 520 830 l498 795 529 7 c575 8 5006 39 5507 38 l308 0 -44 -72 c-24 -40
-367 -615 -763 -1278 -1788 -2993 -2880 -4822 -3679 -6160 -474 -795 -866
-1450 -871 -1455 -4 -6 -9 -17 -11 -25 -2 -10 0 -11 11 -2 11 9 1030 11 4275
10 4258 -3 4262 -3 4256 17 -4 11 -59 110 -124 220 -64 110 -171 292 -237 405
-453 774 -652 1114 -1001 1710 -785 1343 -743 1270 -747 1270 -2 0 -44 -66
-93 -147 -49 -82 -194 -321 -322 -533 -128 -212 -245 -405 -260 -430 -15 -25
-111 -184 -213 -353 -103 -169 -187 -311 -187 -315 0 -8 -2011 -3 -2019 4 -3
3 70 130 834 1449 191 330 412 710 490 845 148 256 318 549 985 1700 222 382
476 821 565 975 186 321 778 1342 1388 2395 852 1469 947 1635 947 1647 0 11
-330 13 -1742 13 -2029 0 -6836 8 -9215 15 -1616 5 -1653 5 -1653 -14z"/>
<path d="M8243 14248 c-4 -7 -12 -21 -18 -30 -5 -10 -141 -242 -301 -515 -160
-274 -522 -894 -804 -1378 -282 -484 -725 -1244 -985 -1690 -260 -445 -654
-1123 -877 -1505 -609 -1045 -1095 -1880 -1661 -2850 -1017 -1746 -1502 -2578
-1578 -2710 -43 -74 -82 -140 -86 -145 -4 -6 -9 -17 -11 -25 -3 -11 0 -11 12
-1 12 10 1456 10 7198 2 8136 -13 9669 -13 9676 -6 3 3 -3 5 -14 5 -15 0 -136
198 -549 900 -482 819 -532 900 -552 895 -12 -3 -899 -1 -1970 5 -1071 5
-2987 14 -4258 20 -3964 18 -6339 30 -6342 34 -2 2 101 180 228 397 340 579
638 1085 886 1509 121 206 342 583 492 838 149 254 393 669 541 922 149 253
392 668 541 923 150 254 370 629 489 832 936 1596 1075 1832 1773 3021 153
259 277 476 277 482 0 15 -99 19 -1060 47 -470 13 -896 27 -947 30 -68 4 -94
2 -100 -7z"/>
</g>
</svg>