<?xml version="1.0" encoding="UTF-8" standalone="no"?>
<svg
   version="1.0"
   width="2048.000000pt"
   height="2048.000000pt"
   viewBox="0 0 2048.000000 2048.000000"
   preserveAspectRatio="xMidYMid meet"
   id="svg8"
   sodipodi:docname="logo2.svg"
   inkscape:version="1.2.2 (b0a8486, 2022-12-01)"
   xmlns:inkscape="http://www.inkscape.org/namespaces/inkscape"
   xmlns:sodipodi="http://sodipodi.sourceforge.net/DTD/sodipodi-0.dtd"
   xmlns="http://www.w3.org/2000/svg"
   xmlns:svg="http://www.w3.org/2000/svg">
  <defs
     id="defs12" />
  <sodipodi:namedview
     id="namedview10"
     pagecolor="#ffffff"
     bordercolor="#000000"
     borderopacity="0.25"
     inkscape:showpageshadow="2"
     inkscape:pageopacity="0.0"
     inkscape:pagecheckerboard="0"
     inkscape:deskcolor="#d1d1d1"
     inkscape:document-units="pt"
     showgrid="false"
     inkscape:zoom="1.3526598"
     inkscape:cx="562.22561"
     inkscape:cy="391.08132"
     inkscape:window-width="1309"
     inkscape:window-height="456"
     inkscape:window-x="0"
     inkscape:window-y="400"
     inkscape:window-maximized="0"
     inkscape:current-layer="svg8" />
  <g
     transform="matrix(0.00424855,0,0,-0.00372222,321.18184,324.83796)"
     fill="#000000"
     stroke="none"
     id="g6">
    <path
       d="m 4080,17881 c 0,-10 130,-248 289,-527 245,-433 1098,-1938 1519,-2679 200,-353 224,-395 234,-401 5,-3 8,-2 6,3 -1,4 8,24 20,43 12,19 246,393 520,830 l 498,795 529,7 c 575,8 5006,39 5507,38 h 308 l -44,-72 c -24,-40 -367,-615 -763,-1278 C 10915,11647 9823,9818 9024,8480 8550,7685 8158,7030 8153,7025 c -4,-6 -9,-17 -11,-25 -2,-10 0,-11 11,-2 11,9 1030,11 4275,10 4258,-3 4262,-3 4256,17 -4,11 -59,110 -124,220 -64,110 -171,292 -237,405 -453,774 -652,1114 -1001,1710 -785,1343 -743,1270 -747,1270 -2,0 -44,-66 -93,-147 -49,-82 -194,-321 -322,-533 -128,-212 -245,-405 -260,-430 -15,-25 -111,-184 -213,-353 -103,-169 -187,-311 -187,-315 0,-8 -2011,-3 -2019,4 -3,3 70,130 834,1449 191,330 412,710 490,845 148,256 318,549 985,1700 222,382 476,821 565,975 186,321 778,1342 1388,2395 852,1469 947,1635 947,1647 0,11 -330,13 -1742,13 -2029,0 -6836,8 -9215,15 -1616,5 -1653,5 -1653,-14 z"
       id="path2" />
    <path
       d="m 8243,14248 c -4,-7 -12,-21 -18,-30 -5,-10 -141,-242 -301,-515 -160,-274 -522,-894 -804,-1378 -282,-484 -725,-1244 -985,-1690 C 5875,10190 5481,9512 5258,9130 4649,8085 4163,7250 3597,6280 2580,4534 2095,3702 2019,3570 c -43,-74 -82,-140 -86,-145 -4,-6 -9,-17 -11,-25 -3,-11 0,-11 12,-1 12,10 1456,10 7198,2 8136,-13 9669,-13 9676,-6 3,3 -3,5 -14,5 -15,0 -136,198 -549,900 -482,819 -532,900 -552,895 -12,-3 -899,-1 -1970,5 -1071,5 -2987,14 -4258,20 -3964,18 -6339,30 -6342,34 -2,2 101,180 228,397 340,579 638,1085 886,1509 121,206 342,583 492,838 149,254 393,669 541,922 149,253 392,668 541,923 150,254 370,629 489,832 936,1596 1075,1832 1773,3021 153,259 277,476 277,482 0,15 -99,19 -1060,47 -470,13 -896,27 -947,30 -68,4 -94,2 -100,-7 z"
       id="path4" />
  </g>
</svg>
